<svg xmlns="http://www.w3.org/2000/svg">
<defs>
<symbol id="icon-logo" viewBox="0 0 51 32">
<path d="M16.244 0.408c-0.009 0.020-0.012 4.401-0.009 9.732l0.009 9.695 1.494 0.009c1.298 0.006 1.511 0 1.652-0.040 0.322-0.095 0.56-0.296 0.709-0.603l0.080-0.169v-17.838l-0.078-0.158c-0.161-0.322-0.388-0.514-0.738-0.62-0.184-0.055-3.099-0.060-3.12-0.006zM22.472 0.434c-0.066 0.032-0.155 0.106-0.201 0.164l-0.080 0.106v11.691l0.141 0.517c0.075 0.284 0.161 0.606 0.19 0.718 0.029 0.109 0.112 0.428 0.184 0.704s0.167 0.638 0.207 0.804c0.043 0.167 0.083 0.307 0.089 0.313 0.023 0.032 0.029 0.011 0.282-0.959 0.057-0.221 0.129-0.494 0.158-0.603 0.029-0.112 0.126-0.485 0.215-0.83 0.089-0.348 0.167-0.641 0.175-0.652 0.006-0.011 0.012-2.64 0.012-5.843v-5.823l-0.078-0.118c-0.049-0.072-0.132-0.146-0.21-0.187-0.115-0.057-0.169-0.063-0.546-0.063-0.365 0-0.431 0.009-0.537 0.060zM30.535 0.428c-0.19 0.078-0.371 0.247-0.457 0.431l-0.075 0.161v2.585l0.417 0.017v1.117l-0.078 0.017c-0.89 0.195-1.574 0.896-1.729 1.775-0.106 0.589 0.118 1.321 0.54 1.761 0.049 0.052 0.089 0.109 0.089 0.132 0 0.037-0.037 0.126-0.207 0.508-0.055 0.121-0.075 0.167-0.178 0.408-0.023 0.052-0.072 0.167-0.109 0.253-0.066 0.144-0.172 0.394-0.267 0.618-0.020 0.046-0.069 0.158-0.109 0.244-0.037 0.086-0.207 0.474-0.373 0.862s-0.336 0.781-0.379 0.876c-0.040 0.095-0.083 0.198-0.098 0.23-0.037 0.092-0.080 0.187-0.19 0.425-0.055 0.124-0.101 0.23-0.101 0.238 0 0.006-0.029 0.075-0.060 0.149-0.034 0.075-0.078 0.172-0.098 0.221-0.020 0.046-0.066 0.149-0.101 0.23-0.037 0.078-0.233 0.529-0.437 1.002-0.336 0.781-0.379 0.908-0.5 1.393-0.181 0.75-0.485 2.002-0.589 2.445-0.017 0.072-0.037 0.149-0.043 0.175-0.009 0.034 0.032 0.066 0.152 0.112 0.092 0.037 0.181 0.075 0.195 0.086 0.017 0.012 0.057 0.029 0.095 0.037 0.057 0.014 0.089-0.020 0.256-0.276 0.215-0.33 0.537-0.822 1.115-1.701 0.431-0.652 0.638-1.026 0.784-1.422 0.017-0.040 0.057-0.135 0.092-0.21 0.037-0.078 0.057-0.164 0.049-0.201-0.124-0.497-0.129-0.583-0.049-0.899 0.109-0.422 0.371-0.755 0.776-0.988l0.178-0.101 0.227-0.531c0.126-0.293 0.247-0.572 0.267-0.618 0.023-0.049 0.101-0.23 0.175-0.402 0.075-0.175 0.152-0.356 0.172-0.402 0.21-0.468 0.302-0.678 0.302-0.689 0-0.006 0.034-0.086 0.075-0.178 0.083-0.187 0.129-0.287 0.198-0.454 0.195-0.465 0.353-0.801 0.379-0.81s0.181 0.267 0.181 0.322c0 0.009 0.046 0.112 0.101 0.233 0.055 0.118 0.101 0.221 0.101 0.23 0 0.006 0.029 0.075 0.060 0.149 0.034 0.075 0.078 0.172 0.098 0.221 0.020 0.046 0.069 0.158 0.109 0.244 0.040 0.089 0.152 0.348 0.25 0.575 0.098 0.23 0.195 0.454 0.218 0.503 0.020 0.046 0.144 0.33 0.273 0.632 0.126 0.299 0.259 0.603 0.29 0.675s0.075 0.167 0.095 0.215c0.020 0.046 0.106 0.241 0.187 0.431 0.083 0.19 0.167 0.382 0.187 0.431 0.020 0.046 0.063 0.144 0.095 0.215s0.138 0.316 0.236 0.546c0.098 0.23 0.19 0.428 0.204 0.445 0.017 0.014 0.066 0.011 0.135-0.011 0.152-0.052 1.189-0.462 1.247-0.494 0.029-0.014 0.072-0.026 0.095-0.026 0.026 0 0.052-0.020 0.060-0.043 0.014-0.037-0.362-0.954-0.641-1.56-0.052-0.112-0.095-0.213-0.095-0.221 0-0.006-0.032-0.083-0.072-0.169s-0.072-0.164-0.072-0.169c0-0.009-0.049-0.124-0.109-0.256-0.060-0.129-0.198-0.445-0.304-0.698s-0.207-0.483-0.224-0.511c-0.014-0.032-0.121-0.276-0.238-0.546-0.221-0.523-0.379-0.885-0.491-1.135-0.037-0.083-0.069-0.158-0.069-0.164s-0.034-0.086-0.075-0.178c-0.043-0.092-0.095-0.213-0.121-0.267-0.023-0.055-0.060-0.135-0.083-0.178-0.037-0.078-0.034-0.086 0.072-0.201 0.241-0.264 0.417-0.586 0.514-0.934 0.060-0.218 0.060-0.77 0-0.985-0.198-0.71-0.641-1.218-1.301-1.494-0.121-0.049-0.273-0.101-0.336-0.109l-0.121-0.023-0.009-0.566-0.006-0.566h0.402l0.003-1.115c0.006-1.66 0.012-1.611-0.184-1.833-0.241-0.276-0.641-0.376-0.968-0.244zM35.174 15.69c-0.781 0.316-1.060 0.425-1.092 0.425-0.020 0-0.052 0.020-0.075 0.046-0.029 0.037-0.029 0.060 0.009 0.135 0.026 0.052 0.080 0.175 0.124 0.279s0.106 0.244 0.135 0.316c0.032 0.072 0.069 0.155 0.083 0.187 0.011 0.032 0.069 0.155 0.124 0.276 0.055 0.124 0.167 0.382 0.247 0.575 0.319 0.761 0.428 0.888 0.842 0.974 0.394 0.080 0.856-0.184 0.965-0.557 0.049-0.172 0.029-0.425-0.046-0.592-0.034-0.072-0.138-0.31-0.233-0.531s-0.227-0.526-0.293-0.675c-0.066-0.149-0.138-0.319-0.161-0.373-0.195-0.451-0.264-0.589-0.299-0.595-0.023-0.003-0.172 0.046-0.33 0.112zM7.627 26.195c-0.201 0.052-0.385 0.204-0.491 0.405-0.052 0.095-0.055 0.221-0.063 2.341-0.009 2.413-0.009 2.39 0.141 2.6 0.169 0.236 0.425 0.33 0.836 0.31 0.304-0.014 0.468-0.075 0.62-0.227 0.213-0.21 0.207-0.175 0.207-1.482-0.003-1.235 0-1.227-0.135-1.296-0.089-0.049-0.842-0.046-0.842 0 0.003 0.092 0.221 0.442 0.307 0.497l0.092 0.057 0.003 0.856c0 0.718-0.006 0.87-0.043 0.942-0.086 0.167-0.365 0.195-0.506 0.057l-0.083-0.083v-4.32l0.083-0.080c0.149-0.149 0.325-0.149 0.468 0.006l0.080 0.086v0.411c0 0.227 0.011 0.419 0.026 0.428 0.040 0.026 0.457-0.178 0.503-0.247 0.034-0.049 0.046-0.144 0.046-0.405 0-0.299-0.009-0.353-0.069-0.474-0.069-0.138-0.221-0.276-0.376-0.348-0.098-0.046-0.672-0.069-0.804-0.034zM35.26 26.186c-0.348 0.086-0.537 0.29-0.589 0.635-0.020 0.129-0.029 0.925-0.023 2.321l0.009 2.126 0.078 0.164c0.147 0.313 0.428 0.439 0.939 0.419 0.437-0.017 0.626-0.109 0.81-0.394l0.083-0.129v-2.307c0-2.597 0.017-2.399-0.221-2.628-0.172-0.167-0.29-0.204-0.684-0.213-0.19-0.006-0.371-0.003-0.402 0.006zM35.789 26.703c0.201 0.101 0.19-0.032 0.195 2.275 0.009 1.876 0.003 2.088-0.037 2.177-0.057 0.121-0.169 0.184-0.325 0.184-0.164 0-0.253-0.043-0.319-0.149-0.055-0.092-0.057-0.146-0.057-2.166 0-1.442 0.009-2.1 0.032-2.163 0.060-0.169 0.322-0.253 0.511-0.158zM45.803 26.195c-0.221 0.057-0.434 0.247-0.506 0.451-0.032 0.092-0.040 0.531-0.040 2.381v2.269l0.066 0.135c0.141 0.287 0.411 0.425 0.822 0.425 0.414 0 0.684-0.126 0.842-0.394l0.080-0.138 0.009-0.755c0.006-0.414 0-0.753-0.014-0.753-0.069 0-0.428 0.175-0.494 0.241-0.075 0.075-0.075 0.080-0.089 0.586-0.011 0.379-0.026 0.526-0.057 0.572-0.101 0.152-0.394 0.164-0.508 0.017l-0.066-0.080v-4.297l0.066-0.066c0.144-0.144 0.457-0.109 0.534 0.057 0.020 0.046 0.032 0.287 0.032 0.689 0 0.526 0.006 0.618 0.043 0.632 0.057 0.023 0.333-0.098 0.454-0.192l0.092-0.078v-0.598c0-0.598 0-0.6-0.078-0.73-0.089-0.152-0.167-0.23-0.325-0.316-0.098-0.055-0.167-0.066-0.445-0.075-0.181-0.006-0.368 0-0.417 0.014zM0.451 26.218c-0.012 0.009-0.020 1.27-0.020 2.801v2.781h0.626c0.681 0 0.816-0.023 0.997-0.161 0.055-0.040 0.135-0.146 0.178-0.236l0.080-0.164v-2.241c0-2.238 0-2.241-0.063-2.373-0.101-0.218-0.236-0.327-0.488-0.385-0.172-0.043-1.273-0.060-1.31-0.023zM1.583 26.792c0.063 0.037 0.089 0.080 0.112 0.195 0.046 0.227 0.026 4.059-0.023 4.142-0.063 0.115-0.187 0.155-0.431 0.146l-0.221-0.009-0.009-2.264-0.006-2.261h0.247c0.181 0 0.27 0.014 0.33 0.049zM4.421 26.2c0 0.006-0.006 1.238-0.009 2.74-0.006 2.218 0.003 2.74 0.032 2.792 0.034 0.060 0.060 0.066 0.296 0.066h0.259v-2.726c0-3.18 0.040-2.852-0.342-2.87-0.129-0.006-0.233-0.009-0.236-0.003zM10.973 28.967c0 2.341 0.006 2.772 0.040 2.801 0.026 0.023 0.129 0.032 0.281 0.026l0.238-0.009 0.009-2.628c0.003-1.445 0-2.683-0.009-2.752-0.023-0.158-0.112-0.207-0.373-0.207h-0.187v2.769zM12.383 26.258c-0.055 0.052-0.063 0.083-0.055 0.279l0.009 0.221 0.819 0.017v2.433c0 1.904 0.009 2.447 0.037 2.505 0.034 0.069 0.046 0.072 0.307 0.072h0.273l0.006-2.47c0.009-2.281 0.011-2.473 0.057-2.508 0.032-0.023 0.152-0.034 0.345-0.034 0.414 0 0.468-0.029 0.598-0.29 0.055-0.115 0.101-0.224 0.101-0.247 0-0.032-0.221-0.037-1.215-0.037-1.192 0-1.218 0-1.281 0.060zM17.298 26.232c-0.020 0.020-0.034 0.069-0.034 0.112s-0.012 0.141-0.029 0.218c-0.034 0.167-0.221 1.341-0.362 2.249-0.023 0.149-0.055 0.345-0.069 0.431-0.049 0.282-0.169 1.034-0.259 1.623-0.046 0.316-0.098 0.638-0.115 0.712-0.049 0.233-0.066 0.221 0.287 0.221 0.362 0 0.316 0.043 0.373-0.359 0.017-0.126 0.043-0.307 0.057-0.402 0.017-0.095 0.049-0.327 0.072-0.517 0.026-0.19 0.057-0.417 0.072-0.503s0.032-0.23 0.043-0.316c0.009-0.086 0.029-0.236 0.043-0.33s0.046-0.327 0.072-0.517c0.115-0.867 0.146-0.951 0.198-0.488 0.026 0.215 0.132 1.011 0.221 1.652 0.017 0.118 0.040 0.299 0.055 0.402s0.046 0.327 0.069 0.503c0.023 0.172 0.057 0.425 0.075 0.56s0.037 0.261 0.043 0.279c0.014 0.040 0.603 0.055 0.626 0.014 0.012-0.017-0.014-0.207-0.092-0.709-0.017-0.095-0.043-0.264-0.060-0.373-0.017-0.112-0.043-0.279-0.057-0.373-0.017-0.095-0.080-0.497-0.144-0.89-0.063-0.396-0.126-0.796-0.141-0.89-0.032-0.187-0.075-0.457-0.19-1.206-0.040-0.27-0.086-0.534-0.101-0.592-0.017-0.057-0.029-0.141-0.029-0.187-0.003-0.118-0.089-0.276-0.172-0.319-0.092-0.046-0.408-0.049-0.454-0.003zM21.018 26.218c-0.026 0.023-0.026 5.475-0.003 5.535 0.014 0.040 0.112 0.046 0.804 0.046 0.773 0 0.784 0 0.856-0.066 0.078-0.066 0.247-0.371 0.247-0.439 0-0.032-0.121-0.040-0.652-0.046l-0.655-0.009-0.014-2.479c-0.017-2.864 0.023-2.562-0.345-2.562-0.121 0-0.23 0.009-0.238 0.020zM27.137 26.218c-0.012 0.009-0.020 1.255-0.020 2.766 0 2.097 0.009 2.755 0.034 2.781 0.023 0.023 0.129 0.034 0.287 0.034h0.253l0.006-1.244 0.009-1.241 0.259-0.017c0.402-0.029 0.523-0.069 0.692-0.238 0.241-0.241 0.25-0.29 0.264-1.293 0.006-0.572 0-0.902-0.023-0.985-0.040-0.167-0.152-0.33-0.284-0.422-0.192-0.135-0.345-0.161-0.925-0.161-0.293 0-0.543 0.009-0.552 0.020zM28.191 26.804c0.152 0.121 0.161 0.164 0.161 0.942 0 0.908-0.012 0.936-0.388 0.971-0.129 0.012-0.198 0.006-0.23-0.020-0.037-0.032-0.043-0.169-0.043-0.977 0-0.514 0.009-0.948 0.020-0.957 0.009-0.012 0.103-0.020 0.21-0.020 0.152 0 0.21 0.012 0.27 0.060zM30.808 26.232c-0.009 0.020-0.012 1.278-0.009 2.795l0.009 2.758h0.575l0.009-1.198 0.006-1.201h0.19c0.19 0 0.313 0.040 0.388 0.132 0.032 0.040 0.043 0.256 0.055 1.158l0.014 1.109h0.575v-1.149c0-1.129 0-1.152-0.063-1.278-0.034-0.072-0.080-0.149-0.098-0.172-0.026-0.037-0.017-0.069 0.040-0.152 0.124-0.184 0.141-0.345 0.129-1.347-0.009-0.905-0.011-0.931-0.075-1.066-0.083-0.169-0.27-0.322-0.454-0.379-0.187-0.057-1.27-0.063-1.29-0.009zM31.871 26.815c0.060 0.023 0.112 0.072 0.129 0.115 0.037 0.098 0.037 1.652 0 1.749-0.046 0.124-0.19 0.19-0.408 0.19h-0.195v-2.097h0.187c0.103 0 0.233 0.020 0.287 0.043zM39.595 26.238c-0.009 0.023-0.014 0.057-0.009 0.078 0.003 0.023 0.003 1.123 0 2.447l-0.003 2.41-0.083 0.083c-0.069 0.069-0.109 0.083-0.218 0.083s-0.149-0.014-0.218-0.083c-0.078-0.078-0.083-0.103-0.086-0.296-0.006-0.333-0.009-0.35-0.063-0.362-0.046-0.009-0.201 0.049-0.394 0.146-0.118 0.060-0.149 0.152-0.135 0.396 0.017 0.256 0.057 0.348 0.23 0.508 0.178 0.161 0.376 0.218 0.721 0.201 0.396-0.017 0.6-0.124 0.758-0.396l0.078-0.129 0.009-2.427c0.006-1.629 0-2.462-0.020-2.531-0.040-0.129-0.124-0.169-0.365-0.169-0.132 0-0.19 0.012-0.201 0.040zM41.571 26.243l-0.063 0.043v5.515l1.528-0.017 0.086-0.101c0.161-0.19 0.253-0.325 0.253-0.379 0-0.049-0.037-0.052-0.629-0.052-0.546 0-0.632-0.006-0.646-0.046-0.009-0.026-0.017-0.468-0.017-0.985 0-1.12-0.014-1.066 0.293-1.066 0.244 0 0.348-0.046 0.48-0.213 0.27-0.348 0.264-0.356-0.284-0.359-0.238 0-0.445-0.009-0.46-0.017-0.017-0.012-0.029-0.336-0.029-0.842 0-0.684 0.009-0.836 0.043-0.888 0.037-0.055 0.075-0.060 0.394-0.072 0.23-0.006 0.373-0.023 0.411-0.049 0.141-0.095 0.385-0.457 0.339-0.503-0.011-0.009-0.382-0.017-0.824-0.017-0.687 0-0.819 0.006-0.873 0.046zM47.945 26.246c-0.057 0.046-0.063 0.075-0.055 0.282l0.009 0.23 0.804 0.029 0.009 2.468c0.003 1.767 0.014 2.479 0.037 2.508 0.023 0.026 0.112 0.037 0.302 0.037h0.27v-2.45c0-2.169 0.006-2.456 0.046-2.513s0.066-0.063 0.359-0.063c0.428 0 0.471-0.020 0.609-0.296 0.057-0.121 0.106-0.233 0.106-0.25 0-0.020-0.388-0.029-1.218-0.029-1.117 0-1.224 0.003-1.278 0.049z"></path>
</symbol>
<symbol id="icon-favicon" viewBox="0 0 35 32">
<path d="M1.878 0.643c-0.014 0.032-0.018 6.934-0.014 15.335l0.014 15.276 2.354 0.014c2.046 0.009 2.381 0 2.603-0.063 0.507-0.149 0.883-0.466 1.118-0.951l0.127-0.267v-28.108l-0.122-0.249c-0.253-0.507-0.611-0.81-1.163-0.978-0.29-0.086-4.884-0.095-4.915-0.009zM11.691 0.683c-0.104 0.050-0.244 0.167-0.317 0.258l-0.127 0.167v18.422l0.222 0.815c0.118 0.448 0.253 0.955 0.299 1.132 0.045 0.172 0.177 0.674 0.29 1.109s0.263 1.005 0.326 1.267c0.068 0.263 0.131 0.484 0.14 0.493 0.036 0.050 0.045 0.018 0.444-1.512 0.091-0.349 0.204-0.779 0.249-0.951 0.045-0.177 0.199-0.765 0.339-1.308 0.14-0.548 0.263-1.009 0.276-1.027 0.009-0.018 0.018-4.16 0.018-9.206v-9.175l-0.122-0.186c-0.077-0.113-0.208-0.231-0.33-0.294-0.181-0.091-0.267-0.1-0.86-0.1-0.575 0-0.679 0.014-0.846 0.095zM24.396 0.674c-0.299 0.122-0.584 0.389-0.72 0.679l-0.118 0.253v4.074l0.656 0.027v1.761l-0.122 0.027c-1.403 0.308-2.48 1.412-2.725 2.797-0.167 0.928 0.186 2.082 0.851 2.775 0.077 0.081 0.14 0.172 0.14 0.208 0 0.059-0.059 0.199-0.326 0.801-0.086 0.19-0.118 0.263-0.281 0.643-0.036 0.081-0.113 0.263-0.172 0.398-0.104 0.226-0.272 0.62-0.421 0.973-0.032 0.072-0.109 0.249-0.172 0.385-0.059 0.136-0.326 0.747-0.588 1.358s-0.53 1.231-0.597 1.38c-0.063 0.149-0.131 0.312-0.154 0.362-0.059 0.145-0.127 0.294-0.299 0.67-0.086 0.195-0.158 0.362-0.158 0.376 0 0.009-0.045 0.118-0.095 0.235-0.054 0.118-0.122 0.272-0.154 0.349-0.032 0.072-0.104 0.235-0.158 0.362-0.059 0.122-0.367 0.833-0.688 1.58-0.53 1.231-0.597 1.43-0.788 2.195-0.285 1.181-0.765 3.155-0.928 3.852-0.027 0.113-0.059 0.235-0.068 0.276-0.014 0.054 0.050 0.104 0.24 0.177 0.145 0.059 0.285 0.118 0.308 0.136 0.027 0.018 0.091 0.045 0.149 0.059 0.091 0.023 0.14-0.032 0.403-0.434 0.339-0.52 0.846-1.294 1.756-2.68 0.679-1.027 1.005-1.616 1.236-2.24 0.027-0.063 0.091-0.213 0.145-0.33 0.059-0.122 0.091-0.258 0.077-0.317-0.195-0.783-0.204-0.919-0.077-1.417 0.172-0.665 0.584-1.19 1.222-1.557l0.281-0.158 0.358-0.837c0.199-0.462 0.389-0.901 0.421-0.973 0.036-0.077 0.158-0.362 0.276-0.634 0.118-0.276 0.24-0.561 0.272-0.634 0.33-0.738 0.475-1.068 0.475-1.086 0-0.009 0.054-0.136 0.118-0.281 0.131-0.294 0.204-0.453 0.312-0.715 0.308-0.733 0.557-1.263 0.597-1.276s0.285 0.421 0.285 0.507c0 0.014 0.072 0.177 0.158 0.367 0.086 0.186 0.158 0.348 0.158 0.362 0 0.009 0.045 0.118 0.095 0.235 0.054 0.118 0.122 0.272 0.154 0.348 0.032 0.072 0.109 0.249 0.172 0.385 0.063 0.14 0.24 0.548 0.394 0.905 0.154 0.362 0.308 0.715 0.344 0.792 0.032 0.072 0.226 0.52 0.43 0.996 0.199 0.471 0.407 0.951 0.457 1.064s0.118 0.263 0.149 0.339c0.032 0.072 0.167 0.38 0.294 0.679 0.131 0.299 0.263 0.602 0.294 0.679 0.032 0.072 0.1 0.226 0.149 0.339s0.217 0.498 0.371 0.86c0.154 0.362 0.299 0.674 0.321 0.702 0.027 0.023 0.104 0.018 0.213-0.018 0.24-0.081 1.874-0.729 1.964-0.779 0.045-0.023 0.113-0.041 0.149-0.041 0.041 0 0.081-0.032 0.095-0.068 0.023-0.059-0.57-1.503-1.009-2.458-0.081-0.177-0.149-0.335-0.149-0.349 0-0.009-0.050-0.131-0.113-0.267s-0.113-0.258-0.113-0.267c0-0.014-0.077-0.195-0.172-0.403-0.095-0.204-0.312-0.702-0.48-1.1s-0.326-0.76-0.353-0.806c-0.023-0.050-0.19-0.434-0.376-0.86-0.349-0.824-0.597-1.394-0.774-1.788-0.059-0.131-0.109-0.249-0.109-0.258s-0.054-0.136-0.118-0.281c-0.068-0.145-0.149-0.335-0.19-0.421-0.036-0.086-0.095-0.213-0.131-0.281-0.059-0.122-0.054-0.136 0.113-0.317 0.38-0.416 0.656-0.923 0.81-1.471 0.095-0.344 0.095-1.213 0-1.552-0.312-1.118-1.009-1.919-2.050-2.354-0.19-0.077-0.43-0.158-0.53-0.172l-0.19-0.036-0.014-0.892-0.009-0.892h0.634l0.005-1.756c0.009-2.616 0.018-2.539-0.29-2.888-0.38-0.434-1.009-0.593-1.525-0.385zM31.706 24.722c-1.231 0.498-1.67 0.67-1.72 0.67-0.032 0-0.081 0.032-0.118 0.072-0.045 0.059-0.045 0.095 0.014 0.213 0.041 0.081 0.127 0.276 0.195 0.439s0.167 0.385 0.213 0.498c0.050 0.113 0.109 0.244 0.131 0.294 0.018 0.050 0.109 0.244 0.195 0.434 0.086 0.195 0.263 0.602 0.389 0.905 0.502 1.199 0.674 1.399 1.326 1.534 0.62 0.127 1.349-0.29 1.521-0.878 0.077-0.272 0.045-0.67-0.072-0.932-0.054-0.113-0.217-0.489-0.367-0.837s-0.358-0.828-0.462-1.064c-0.104-0.235-0.217-0.502-0.253-0.588-0.308-0.711-0.416-0.928-0.471-0.937-0.036-0.005-0.272 0.072-0.52 0.177z"></path>
</symbol>
<symbol id="icon-pininterest" viewBox="0 0 18 24">
<path fill="#fff" style="fill: var(--color1, #fff)" d="M9.378 0c-6.234 0-9.376 4.449-9.376 8.16 0 2.246 0.854 4.244 2.687 4.989 0.301 0.123 0.57 0.004 0.657-0.327 0.061-0.229 0.205-0.807 0.268-1.048 0.088-0.327 0.054-0.442-0.188-0.728-0.529-0.62-0.867-1.424-0.867-2.562 0-3.301 2.481-6.255 6.46-6.255 3.523 0 5.458 2.144 5.458 5.005 0 3.767-1.674 6.945-4.16 6.945-1.372 0-2.399-1.131-2.070-2.516 0.395-1.653 1.158-3.44 1.158-4.635 0-1.069-0.576-1.96-1.77-1.96-1.402 0-2.529 1.445-2.529 3.38 0 1.234 0.418 2.068 0.418 2.068s-1.436 6.056-1.688 7.117c-0.501 2.112-0.075 4.701-0.039 4.964 0.021 0.154 0.221 0.191 0.312 0.075 0.129-0.169 1.8-2.222 2.368-4.275 0.16-0.581 0.922-3.59 0.922-3.59 0.456 0.865 1.789 1.628 3.205 1.628 4.218 0 7.079-3.829 7.079-8.952 0-3.874-3.296-7.483-8.305-7.483z"></path>
</symbol>
<symbol id="icon-facebook" viewBox="0 0 13 24">
<path fill="#fff" style="fill: var(--color1, #fff)" d="M7.752 23.991h-5.168v-11.992h-2.583v-4.134h2.583v-2.481c0-3.371 1.459-5.379 5.6-5.379h3.448v4.134h-2.154c-1.614 0-1.72 0.579-1.72 1.657l-0.006 2.068h3.906l-0.457 4.134h-3.448v11.992z"></path>
</symbol>
<symbol id="icon-linked-in" viewBox="0 0 24 24">
<path fill="#fff" style="fill: var(--color1, #fff)" d="M22.214 22.816h-20.429c-0.979 0-1.772-0.695-1.772-1.552v-18.526c0-0.856 0.793-1.55 1.772-1.55h20.429c0.978 0 1.771 0.695 1.771 1.55v18.526c0 0.857-0.793 1.552-1.771 1.552zM4.168 19.253h3.53v-9.764h-3.53v9.764zM5.957 4.782c-1.208 0-1.997 0.728-1.997 1.687 0 0.936 0.766 1.687 1.95 1.687h0.023c1.231 0 1.997-0.751 1.997-1.687-0.022-0.959-0.766-1.687-1.973-1.687zM20.428 13.655c0-3-1.742-4.396-4.064-4.396-1.874 0-2.712 0.947-3.181 1.613v-1.384h-3.53c0.047 0.917 0 9.764 0 9.764h3.53v-5.453c0-0.29 0.023-0.583 0.116-0.791 0.254-0.583 0.836-1.187 1.811-1.187 1.278 0 1.788 0.895 1.788 2.208v5.222h3.53v-5.598zM13.158 10.904c0.007-0.011 0.017-0.022 0.024-0.032v0.032h-0.024z"></path>
</symbol>
<symbol id="icon-twitter" viewBox="0 0 31 24">
<path fill="#fff" style="fill: var(--color1, #fff)" d="M29.658 2.677c-1.091 0.455-2.264 0.758-3.494 0.896 1.256-0.706 2.221-1.824 2.675-3.154-1.177 0.652-2.479 1.127-3.865 1.384-1.108-1.11-2.691-1.801-4.44-1.801-3.36 0-6.086 2.554-6.086 5.702 0 0.448 0.054 0.884 0.158 1.3-5.057-0.239-9.541-2.509-12.542-5.958-0.524 0.843-0.823 1.821-0.823 2.867 0 1.976 1.074 3.724 2.706 4.746-0.997-0.031-1.934-0.287-2.756-0.714 0 0.025 0 0.047 0 0.073 0 2.763 2.096 5.067 4.88 5.591-0.51 0.13-1.049 0.198-1.602 0.198-0.392 0-0.774-0.034-1.145-0.099 0.774 2.263 3.021 3.913 5.684 3.96-2.082 1.529-4.705 2.44-7.557 2.44-0.491 0-0.976-0.027-1.451-0.079 2.692 1.616 5.891 2.562 9.328 2.562 11.192 0 17.312-8.691 17.312-16.225 0-0.248-0.007-0.493-0.018-0.738 1.189-0.805 2.221-1.808 3.037-2.951z"></path>
</symbol>
<symbol id="icon-l" viewBox="0 0 32 32">
<path d="M4.965 16.268c-0.854-0.796-2.24-0.796-3.094 0s-0.854 2.086 0 2.882l7.736 7.205c0.857 0.798 2.248 0.795 3.101-0.006l17.427-16.375c0.851-0.799 0.845-2.090-0.014-2.882s-2.244-0.787-3.094 0.013l-15.879 14.921-6.182-5.757z"></path>
</symbol>
<symbol id="icon-arrow" viewBox="0 0 32 32">
<path d="M28 15.333c0-0.368-0.299-0.667-0.667-0.667h-21.333c-0.368 0-0.667 0.299-0.667 0.667s0.298 0.667 0.667 0.667h21.333c0.368 0 0.667-0.299 0.667-0.667z"></path>
<path d="M11.138 10.195c-0.26-0.26-0.682-0.26-0.943 0l-5.138 5.138 5.138 5.138c0.26 0.26 0.682 0.26 0.943 0s0.26-0.683 0-0.943l-4.195-4.195 4.195-4.195c0.26-0.26 0.26-0.682 0-0.943z"></path>
</symbol>
<symbol id="icon-arrow-right" viewBox="0 0 25 24">
<path d="M3.935 11.5c0-0.276 0.224-0.5 0.5-0.5h16c0.276 0 0.5 0.224 0.5 0.5s-0.224 0.5-0.5 0.5h-16c-0.276 0-0.5-0.224-0.5-0.5z"></path>
<path d="M16.582 7.646c0.195-0.195 0.512-0.195 0.707 0l3.853 3.854-3.853 3.854c-0.195 0.195-0.512 0.195-0.707 0s-0.195-0.512 0-0.707l3.146-3.146-3.146-3.146c-0.195-0.195-0.195-0.512 0-0.707z"></path>
</symbol>
<symbol id="icon-phone" viewBox="0 0 24 24">
<path d="M23.462 18.967l-3.706-3.707c-0.738-0.735-1.961-0.713-2.725 0.051l-1.867 1.867c-0.118-0.065-0.24-0.133-0.368-0.205-1.179-0.653-2.793-1.549-4.491-3.248-1.703-1.703-2.6-3.32-3.255-4.5-0.070-0.125-0.136-0.245-0.201-0.36l1.869-1.868c0.765-0.765 0.786-1.988 0.050-2.725l-3.706-3.707c-0.736-0.736-1.96-0.714-2.725 0.051l-1.045 1.051 0.029 0.028c-0.35 0.447-0.643 0.962-0.861 1.518-0.201 0.529-0.326 1.034-0.383 1.54-0.489 4.057 1.365 7.765 6.396 12.798 6.955 6.955 12.56 6.429 12.802 6.404 0.527-0.063 1.031-0.189 1.545-0.388 0.551-0.215 1.066-0.507 1.513-0.857l0.023 0.020 1.058-1.036c0.764-0.765 0.786-1.987 0.049-2.726zM22.589 20.869l-0.466 0.466-0.186 0.179c-0.293 0.283-0.799 0.68-1.538 0.969-0.42 0.162-0.834 0.265-1.255 0.315-0.053 0.005-5.325 0.455-11.85-6.070-5.548-5.548-6.437-8.744-6.064-11.841 0.047-0.41 0.15-0.823 0.314-1.255 0.292-0.744 0.689-1.249 0.969-1.542l0.645-0.651c0.311-0.312 0.795-0.335 1.079-0.051l3.706 3.706c0.284 0.284 0.261 0.769-0.050 1.082l-2.503 2.501 0.231 0.389c0.128 0.217 0.264 0.46 0.409 0.723 0.689 1.242 1.631 2.941 3.45 4.759 1.815 1.815 3.512 2.757 4.75 3.443 0.267 0.148 0.512 0.284 0.731 0.415l0.39 0.231 2.501-2.502c0.312-0.311 0.798-0.334 1.082-0.050l3.705 3.705c0.283 0.284 0.261 0.769-0.050 1.080z"></path>
</symbol>
<symbol id="icon-location" viewBox="0 0 24 24">
<path d="M11.987 23.841c-0.28 0-0.538-0.148-0.68-0.389l-1.178-1.992c-2.429-4.107-4.724-7.987-5.504-9.552-0.55-1.127-0.827-2.332-0.827-3.588 0-4.515 3.674-8.189 8.189-8.189s8.189 3.673 8.189 8.189c0 1.255-0.277 2.46-0.823 3.582-0.006 0.011-0.011 0.022-0.017 0.033-0.792 1.582-3.075 5.441-5.491 9.526l-1.178 1.992c-0.142 0.241-0.401 0.388-0.68 0.388zM11.987 1.712c-3.644 0-6.608 2.964-6.608 6.608 0 1.014 0.223 1.986 0.663 2.89 0.751 1.507 3.137 5.541 5.444 9.441l0.5 0.846 0.498-0.842c2.308-3.902 4.695-7.938 5.45-9.452 0.003-0.006 0.006-0.012 0.009-0.018 0.433-0.897 0.652-1.861 0.652-2.865-0-3.644-2.965-6.608-6.609-6.608z"></path>
<path d="M11.987 11.88c-2.128 0-3.858-1.731-3.858-3.858s1.731-3.858 3.858-3.858c2.127 0 3.858 1.731 3.858 3.858s-1.731 3.858-3.858 3.858zM11.987 5.745c-1.256 0-2.278 1.022-2.278 2.278s1.022 2.278 2.278 2.278c1.256 0 2.278-1.022 2.278-2.278s-1.022-2.278-2.278-2.278z"></path>
</symbol>
<symbol id="icon-mail" viewBox="0 0 35 24">
<path fill="none" stroke="#fff" style="stroke: var(--color1, #fff)" stroke-linejoin="miter" stroke-linecap="butt" stroke-miterlimit="4" stroke-width="1.7455" d="M17.759 13.444l-0-0-0.009 0.006c-0.061 0.041-0.149 0.071-0.244 0.071h-0.007c-0.139 0-0.228-0.047-0.256-0.071l-0.002-0.001-14.841-12.575h30.188l-14.828 12.571zM21.894 14.159l10.858 8.969h-30.605l10.882-9.035 2.168 1.839c0.639 0.538 1.461 0.822 2.307 0.822s1.667-0.286 2.307-0.825l0.002-0.002 2.082-1.766zM10.538 11.981l-9.665 8.027v-16.217l9.665 8.19zM34.036 3.859v16.16l-9.651-7.973 9.651-8.187z"></path>
</symbol>
</defs>
</svg>